<svg width="485" height="440" viewBox="0 0 485 440" fill="none" xmlns="http://www.w3.org/2000/svg">
<path d="M181.34 417.636V426H180.248V417.636H181.34ZM184.293 417.12V426H183.201V417.12H184.293ZM187.246 417.12V426H186.154V417.12H187.246ZM194.94 419.424V426H193.848V425.028C193.64 425.364 193.348 425.628 192.972 425.82C192.604 426.004 192.196 426.096 191.748 426.096C191.236 426.096 190.776 425.992 190.368 425.784C189.96 425.568 189.636 425.248 189.396 424.824C189.164 424.4 189.048 423.884 189.048 423.276V419.424H190.128V423.132C190.128 423.78 190.292 424.28 190.62 424.632C190.948 424.976 191.396 425.148 191.964 425.148C192.548 425.148 193.008 424.968 193.344 424.608C193.68 424.248 193.848 423.724 193.848 423.036V419.424H194.94ZM199.111 426.108C198.607 426.108 198.155 426.024 197.755 425.856C197.355 425.68 197.039 425.44 196.807 425.136C196.575 424.824 196.447 424.468 196.423 424.068H197.551C197.583 424.396 197.735 424.664 198.007 424.872C198.287 425.08 198.651 425.184 199.099 425.184C199.515 425.184 199.843 425.092 200.083 424.908C200.323 424.724 200.443 424.492 200.443 424.212C200.443 423.924 200.315 423.712 200.059 423.576C199.803 423.432 199.407 423.292 198.871 423.156C198.383 423.028 197.983 422.9 197.671 422.772C197.367 422.636 197.103 422.44 196.879 422.184C196.663 421.92 196.555 421.576 196.555 421.152C196.555 420.816 196.655 420.508 196.855 420.228C197.055 419.948 197.339 419.728 197.707 419.568C198.075 419.4 198.495 419.316 198.967 419.316C199.695 419.316 200.283 419.5 200.731 419.868C201.179 420.236 201.419 420.74 201.451 421.38H200.359C200.335 421.036 200.195 420.76 199.939 420.552C199.691 420.344 199.355 420.24 198.931 420.24C198.539 420.24 198.227 420.324 197.995 420.492C197.763 420.66 197.647 420.88 197.647 421.152C197.647 421.368 197.715 421.548 197.851 421.692C197.995 421.828 198.171 421.94 198.379 422.028C198.595 422.108 198.891 422.2 199.267 422.304C199.739 422.432 200.123 422.56 200.419 422.688C200.715 422.808 200.967 422.992 201.175 423.24C201.391 423.488 201.503 423.812 201.511 424.212C201.511 424.572 201.411 424.896 201.211 425.184C201.011 425.472 200.727 425.7 200.359 425.868C199.999 426.028 199.583 426.108 199.111 426.108ZM204.385 420.324V424.2C204.385 424.52 204.453 424.748 204.589 424.884C204.725 425.012 204.961 425.076 205.297 425.076H206.101V426H205.117C204.509 426 204.053 425.86 203.749 425.58C203.445 425.3 203.293 424.84 203.293 424.2V420.324H202.441V419.424H203.293V417.768H204.385V419.424H206.101V420.324H204.385ZM208.516 420.492C208.708 420.116 208.98 419.824 209.332 419.616C209.692 419.408 210.128 419.304 210.64 419.304V420.432H210.352C209.128 420.432 208.516 421.096 208.516 422.424V426H207.424V419.424H208.516V420.492ZM211.493 422.688C211.493 422.016 211.629 421.428 211.901 420.924C212.173 420.412 212.545 420.016 213.017 419.736C213.497 419.456 214.029 419.316 214.613 419.316C215.189 419.316 215.689 419.44 216.113 419.688C216.537 419.936 216.853 420.248 217.061 420.624V419.424H218.165V426H217.061V424.776C216.845 425.16 216.521 425.48 216.089 425.736C215.665 425.984 215.169 426.108 214.601 426.108C214.017 426.108 213.489 425.964 213.017 425.676C212.545 425.388 212.173 424.984 211.901 424.464C211.629 423.944 211.493 423.352 211.493 422.688ZM217.061 422.7C217.061 422.204 216.961 421.772 216.761 421.404C216.561 421.036 216.289 420.756 215.945 420.564C215.609 420.364 215.237 420.264 214.829 420.264C214.421 420.264 214.049 420.36 213.713 420.552C213.377 420.744 213.109 421.024 212.909 421.392C212.709 421.76 212.609 422.192 212.609 422.688C212.609 423.192 212.709 423.632 212.909 424.008C213.109 424.376 213.377 424.66 213.713 424.86C214.049 425.052 214.421 425.148 214.829 425.148C215.237 425.148 215.609 425.052 215.945 424.86C216.289 424.66 216.561 424.376 216.761 424.008C216.961 423.632 217.061 423.196 217.061 422.7ZM221.342 420.324V424.2C221.342 424.52 221.41 424.748 221.546 424.884C221.682 425.012 221.918 425.076 222.254 425.076H223.058V426H222.074C221.466 426 221.01 425.86 220.706 425.58C220.402 425.3 220.25 424.84 220.25 424.2V420.324H219.398V419.424H220.25V417.768H221.342V419.424H223.058V420.324H221.342ZM224.945 418.356C224.737 418.356 224.561 418.284 224.417 418.14C224.273 417.996 224.201 417.82 224.201 417.612C224.201 417.404 224.273 417.228 224.417 417.084C224.561 416.94 224.737 416.868 224.945 416.868C225.145 416.868 225.313 416.94 225.449 417.084C225.593 417.228 225.665 417.404 225.665 417.612C225.665 417.82 225.593 417.996 225.449 418.14C225.313 418.284 225.145 418.356 224.945 418.356ZM225.473 419.424V426H224.381V419.424H225.473ZM230.202 426.108C229.586 426.108 229.026 425.968 228.522 425.688C228.026 425.408 227.634 425.012 227.346 424.5C227.066 423.98 226.926 423.38 226.926 422.7C226.926 422.028 227.07 421.436 227.358 420.924C227.654 420.404 228.054 420.008 228.558 419.736C229.062 419.456 229.626 419.316 230.25 419.316C230.874 419.316 231.438 419.456 231.942 419.736C232.446 420.008 232.842 420.4 233.13 420.912C233.426 421.424 233.574 422.02 233.574 422.7C233.574 423.38 233.422 423.98 233.118 424.5C232.822 425.012 232.418 425.408 231.906 425.688C231.394 425.968 230.826 426.108 230.202 426.108ZM230.202 425.148C230.594 425.148 230.962 425.056 231.306 424.872C231.65 424.688 231.926 424.412 232.134 424.044C232.35 423.676 232.458 423.228 232.458 422.7C232.458 422.172 232.354 421.724 232.146 421.356C231.938 420.988 231.666 420.716 231.33 420.54C230.994 420.356 230.63 420.264 230.238 420.264C229.838 420.264 229.47 420.356 229.134 420.54C228.806 420.716 228.542 420.988 228.342 421.356C228.142 421.724 228.042 422.172 228.042 422.7C228.042 423.236 228.138 423.688 228.33 424.056C228.53 424.424 228.794 424.7 229.122 424.884C229.45 425.06 229.81 425.148 230.202 425.148ZM238.214 419.304C239.014 419.304 239.662 419.548 240.158 420.036C240.654 420.516 240.902 421.212 240.902 422.124V426H239.822V422.28C239.822 421.624 239.658 421.124 239.33 420.78C239.002 420.428 238.554 420.252 237.986 420.252C237.41 420.252 236.95 420.432 236.606 420.792C236.27 421.152 236.102 421.676 236.102 422.364V426H235.01V419.424H236.102V420.36C236.318 420.024 236.61 419.764 236.978 419.58C237.354 419.396 237.766 419.304 238.214 419.304ZM246.977 420.648C247.201 420.256 247.529 419.936 247.961 419.688C248.393 419.44 248.885 419.316 249.437 419.316C250.029 419.316 250.561 419.456 251.033 419.736C251.505 420.016 251.877 420.412 252.149 420.924C252.421 421.428 252.557 422.016 252.557 422.688C252.557 423.352 252.421 423.944 252.149 424.464C251.877 424.984 251.501 425.388 251.021 425.676C250.549 425.964 250.021 426.108 249.437 426.108C248.869 426.108 248.369 425.984 247.937 425.736C247.513 425.488 247.193 425.172 246.977 424.788V426H245.885V417.12H246.977V420.648ZM251.441 422.688C251.441 422.192 251.341 421.76 251.141 421.392C250.941 421.024 250.669 420.744 250.325 420.552C249.989 420.36 249.617 420.264 249.209 420.264C248.809 420.264 248.437 420.364 248.093 420.564C247.757 420.756 247.485 421.04 247.277 421.416C247.077 421.784 246.977 422.212 246.977 422.7C246.977 423.196 247.077 423.632 247.277 424.008C247.485 424.376 247.757 424.66 248.093 424.86C248.437 425.052 248.809 425.148 249.209 425.148C249.617 425.148 249.989 425.052 250.325 424.86C250.669 424.66 250.941 424.376 251.141 424.008C251.341 423.632 251.441 423.192 251.441 422.688ZM259.658 419.424L255.698 429.096H254.57L255.866 425.928L253.214 419.424H254.426L256.49 424.752L258.53 419.424H259.658Z" fill="#999999"/>
<path d="M268.683 417.636V418.524H265.047V421.344H267.999V422.232H265.047V426H263.955V417.636H268.683ZM271.094 420.492C271.286 420.116 271.558 419.824 271.91 419.616C272.27 419.408 272.706 419.304 273.218 419.304V420.432H272.93C271.706 420.432 271.094 421.096 271.094 422.424V426H270.002V419.424H271.094V420.492ZM280.479 422.46C280.479 422.668 280.467 422.888 280.443 423.12H275.187C275.227 423.768 275.447 424.276 275.847 424.644C276.255 425.004 276.747 425.184 277.323 425.184C277.795 425.184 278.187 425.076 278.499 424.86C278.819 424.636 279.043 424.34 279.171 423.972H280.347C280.171 424.604 279.819 425.12 279.291 425.52C278.763 425.912 278.107 426.108 277.323 426.108C276.699 426.108 276.139 425.968 275.643 425.688C275.155 425.408 274.771 425.012 274.491 424.5C274.211 423.98 274.071 423.38 274.071 422.7C274.071 422.02 274.207 421.424 274.479 420.912C274.751 420.4 275.131 420.008 275.619 419.736C276.115 419.456 276.683 419.316 277.323 419.316C277.947 419.316 278.499 419.452 278.979 419.724C279.459 419.996 279.827 420.372 280.083 420.852C280.347 421.324 280.479 421.86 280.479 422.46ZM279.351 422.232C279.351 421.816 279.259 421.46 279.075 421.164C278.891 420.86 278.639 420.632 278.319 420.48C278.007 420.32 277.659 420.24 277.275 420.24C276.723 420.24 276.251 420.416 275.859 420.768C275.475 421.12 275.255 421.608 275.199 422.232H279.351ZM287.92 422.46C287.92 422.668 287.908 422.888 287.884 423.12H282.628C282.668 423.768 282.888 424.276 283.288 424.644C283.696 425.004 284.188 425.184 284.764 425.184C285.236 425.184 285.628 425.076 285.94 424.86C286.26 424.636 286.484 424.34 286.612 423.972H287.788C287.612 424.604 287.26 425.12 286.732 425.52C286.204 425.912 285.548 426.108 284.764 426.108C284.14 426.108 283.58 425.968 283.084 425.688C282.596 425.408 282.212 425.012 281.932 424.5C281.652 423.98 281.512 423.38 281.512 422.7C281.512 422.02 281.648 421.424 281.92 420.912C282.192 420.4 282.572 420.008 283.06 419.736C283.556 419.456 284.124 419.316 284.764 419.316C285.388 419.316 285.94 419.452 286.42 419.724C286.9 419.996 287.268 420.372 287.524 420.852C287.788 421.324 287.92 421.86 287.92 422.46ZM286.792 422.232C286.792 421.816 286.7 421.46 286.516 421.164C286.332 420.86 286.08 420.632 285.76 420.48C285.448 420.32 285.1 420.24 284.716 420.24C284.164 420.24 283.692 420.416 283.3 420.768C282.916 421.12 282.696 421.608 282.64 422.232H286.792ZM290.454 420.636C290.67 420.26 290.99 419.948 291.414 419.7C291.846 419.444 292.346 419.316 292.914 419.316C293.498 419.316 294.026 419.456 294.497 419.736C294.977 420.016 295.354 420.412 295.626 420.924C295.898 421.428 296.034 422.016 296.034 422.688C296.034 423.352 295.898 423.944 295.626 424.464C295.354 424.984 294.977 425.388 294.497 425.676C294.026 425.964 293.498 426.108 292.914 426.108C292.354 426.108 291.858 425.984 291.426 425.736C291.002 425.48 290.678 425.164 290.454 424.788V429.12H289.362V419.424H290.454V420.636ZM294.918 422.688C294.918 422.192 294.818 421.76 294.618 421.392C294.418 421.024 294.146 420.744 293.802 420.552C293.466 420.36 293.094 420.264 292.686 420.264C292.286 420.264 291.914 420.364 291.57 420.564C291.234 420.756 290.962 421.04 290.754 421.416C290.554 421.784 290.454 422.212 290.454 422.7C290.454 423.196 290.554 423.632 290.754 424.008C290.962 424.376 291.234 424.66 291.57 424.86C291.914 425.052 292.286 425.148 292.686 425.148C293.094 425.148 293.466 425.052 293.802 424.86C294.146 424.66 294.418 424.376 294.618 424.008C294.818 423.632 294.918 423.192 294.918 422.688ZM298.035 418.356C297.827 418.356 297.651 418.284 297.507 418.14C297.363 417.996 297.291 417.82 297.291 417.612C297.291 417.404 297.363 417.228 297.507 417.084C297.651 416.94 297.827 416.868 298.035 416.868C298.235 416.868 298.403 416.94 298.539 417.084C298.683 417.228 298.755 417.404 298.755 417.612C298.755 417.82 298.683 417.996 298.539 418.14C298.403 418.284 298.235 418.356 298.035 418.356ZM298.563 419.424V426H297.471V419.424H298.563ZM304.096 426L301.516 423.096V426H300.424V417.12H301.516V422.34L304.048 419.424H305.572L302.476 422.7L305.584 426H304.096Z" fill="#3254FE"/>
<path d="M263.031 427.2H305.68V427.8H263.031V427.2Z" fill="#3254FE"/>
<a href="https://www.freepik.com/free-vector/cyber-attacker-hacking-into-email-server_5259895.htm#query=scam&#38;position=2&#38;from_view=search">
<rect fill="black" fill-opacity="0" x="84.0312" y="9" width="42.6488" height="18"/>
</a>
<path d="M214.716 110.986L205.262 146.462L255.051 159.69L264.506 124.214L214.716 110.986ZM234.356 137.3L216.963 113.059L261.52 124.897L234.356 137.3ZM228.385 131.441L207.282 144.411L215.522 113.504L228.385 131.441ZM229.221 132.606L233.871 139.088L241.144 135.768L253.111 157.699L207.924 145.702L229.221 132.606ZM242.44 135.177L262.538 125.987L254.305 156.906L242.44 135.177Z" fill="#27434C"/>
<path d="M228.602 69.6125L206.682 77.523L198.756 55.6418L220.677 47.7288L228.602 69.6125ZM207.237 76.3433L227.42 69.0586L220.123 48.9111L199.94 56.1957L207.237 76.3433Z" fill="#27434C"/>
<path d="M212.311 57.4813L211.441 57.7955L215.135 67.9953L216.006 67.6811L212.311 57.4813Z" fill="#27434C"/>
<path d="M218.676 60.4655L208.459 64.1537L208.773 65.0226L218.991 61.3343L218.676 60.4655Z" fill="#27434C"/>
<path d="M184.054 95.7929H120.837L120.947 95.2316C121.231 93.7882 121.799 92.4154 122.619 91.1929C123.439 89.9704 124.493 88.9225 125.722 88.1099C126.95 87.2974 128.328 86.7364 129.775 86.4594C131.222 86.1825 132.71 86.1951 134.153 86.4965C135.654 83.6543 137.854 81.24 140.548 79.4808C143.241 77.7217 146.338 76.6755 149.548 76.4408C152.758 76.206 155.976 76.7904 158.897 78.139C161.818 79.4875 164.348 81.5559 166.248 84.1495C168.145 83.5749 170.143 83.4134 172.108 83.6759C174.073 83.9383 175.958 84.6185 177.637 85.6707C179.316 86.7228 180.749 88.1223 181.84 89.7747C182.931 91.4271 183.654 93.2939 183.96 95.249L184.054 95.7929ZM122.001 94.8491H182.94C182.579 93.0614 181.842 91.3704 180.778 89.8881C179.714 88.4058 178.347 87.1658 176.767 86.2502C175.187 85.3346 173.43 84.7642 171.613 84.5768C169.796 84.3893 167.959 84.5891 166.225 85.1628L165.892 85.2746L165.688 84.9865C163.895 82.4426 161.472 80.4061 158.655 79.0758C155.838 77.7454 152.724 77.1666 149.617 77.3958C146.509 77.6249 143.514 78.6543 140.924 80.3833C138.333 82.1124 136.236 84.4822 134.837 87.2615L134.658 87.5844L134.29 87.495C133.499 87.2992 132.688 87.2008 131.874 87.2019C129.612 87.2035 127.414 87.9555 125.627 89.3398C123.84 90.7242 122.565 92.6622 122.001 94.8491Z" fill="#27434C"/>
<path d="M97.5619 83.0666C97.2575 82.8618 96.9292 82.695 96.5842 82.5698C96.1231 82.3907 95.649 82.2471 95.166 82.1402C94.6035 82.016 94.0319 81.9371 93.4568 81.9042C92.8415 81.8658 92.224 81.8883 91.6132 81.9713L92.9617 88.486H93.5812C94.6729 88.5155 95.762 88.6084 96.8429 88.7641C97.7321 88.8829 98.5984 89.1341 99.413 89.5092C100.132 89.8517 100.76 90.3569 101.249 90.9845C101.784 91.7125 102.143 92.554 102.299 93.4434C102.536 94.4228 102.536 95.4444 102.299 96.4238C102.07 97.28 101.644 98.071 101.055 98.7336C100.427 99.4276 99.6752 99.9994 98.8383 100.42C97.9134 100.892 96.9318 101.244 95.9174 101.468L96.6016 104.771L94.962 105.109L94.2579 101.741C92.7633 101.95 91.2468 101.95 89.7522 101.741C88.3005 101.535 86.8907 101.101 85.5748 100.455L86.5551 97.1018C86.923 97.3501 87.3188 97.5543 87.7344 97.7103C88.293 97.9312 88.8678 98.1088 89.4536 98.2418C90.1416 98.3993 90.84 98.5072 91.5435 98.5647C92.3025 98.633 93.066 98.633 93.825 98.5647L92.4765 92.0525C92.3378 92.0348 92.1983 92.0249 92.0585 92.0227C91.9196 92.0205 91.7809 92.0105 91.643 91.9929C90.6009 91.9447 89.5625 91.836 88.5331 91.6676C87.7277 91.5475 86.9476 91.2958 86.2242 90.9225C85.6018 90.592 85.0619 90.126 84.6443 89.5589C84.1945 88.9111 83.8899 88.1741 83.7511 87.3981C83.539 86.4614 83.5288 85.4903 83.7213 84.5493C83.9075 83.6892 84.2775 82.8793 84.806 82.1749C85.3558 81.448 86.0357 80.8291 86.8114 80.3494C87.6698 79.8215 88.5975 79.4152 89.5681 79.1424L88.9087 75.9633L90.5483 75.6255L91.2076 78.8021C92.5191 78.6051 93.8536 78.6177 95.161 78.8394C96.3307 79.0278 97.4718 79.3633 98.5571 79.8378L97.5619 83.0666ZM87.3264 86.0321C87.5105 86.913 87.9575 87.5099 88.6674 87.8228C89.3773 88.1358 90.3982 88.3295 91.7301 88.404L90.4463 82.1948C89.1774 82.526 88.2934 83.0227 87.7941 83.685C87.5457 84.0167 87.3744 84.3994 87.2927 84.8054C87.2109 85.2113 87.2207 85.6304 87.3214 86.0321H87.3264ZM98.6019 94.5983C98.5365 94.1788 98.3595 93.7845 98.0895 93.4564C97.8196 93.1283 97.4664 92.8785 97.0668 92.733C95.9843 92.3651 94.8553 92.1511 93.713 92.0972L95.0043 98.3288C96.3461 98.0307 97.3289 97.5655 97.9526 96.933C98.2552 96.6341 98.4739 96.2612 98.587 95.8515C98.7001 95.4418 98.7035 95.0097 98.5969 94.5983H98.6019Z" fill="#27434C"/>
<path d="M182.136 203.093C181.945 203.327 181.855 203.628 181.886 203.929C181.917 204.23 182.066 204.506 182.3 204.697C182.446 204.811 182.616 204.888 182.798 204.923C183.009 211.324 182.596 215.26 180.255 215.355C177.991 215.459 177.747 212.061 177.747 212.061C177.394 213.534 177.996 216.646 180.967 215.911C183.524 215.28 183.482 207.715 183.375 204.888C183.588 204.822 183.777 204.694 183.917 204.521C184.108 204.287 184.198 203.986 184.168 203.686C184.137 203.385 183.988 203.11 183.753 202.919C183.519 202.728 183.218 202.638 182.917 202.669C182.616 202.7 182.339 202.849 182.148 203.083L182.136 203.093Z" fill="#878787"/>
<path d="M313.982 226.732C315.161 231.836 314.957 243.691 314.957 243.691C315.278 254.937 314.022 266.486 313.713 272.934C313.713 273.132 313.691 273.331 313.683 273.535C313.601 275.057 313.502 276.672 313.39 278.306H397.658C397.628 276.756 397.595 275.162 397.571 273.535C397.401 264.015 397.25 253.588 397.237 246.145C416.494 241.066 437.294 234.442 436.903 229.596C436.502 224.609 421.5 151.186 417.305 148.189C414.447 146.14 396.488 138.957 387.173 135.425C382.867 133.788 379.582 132.646 378.911 132.606C376.778 132.472 351.727 134.295 351.727 134.295C351.727 134.295 346.751 136.282 342.895 138.038C336.321 141.048 326.078 145.755 318.726 149.249C316.353 150.374 313.385 151.902 310.914 153.206C311.213 162.117 311.742 171.678 312.501 181.887C312.501 181.887 313.852 204.2 313.982 226.732ZM397.476 235.227C398.511 221.248 402.736 197.226 403.198 195.537L405.189 197.41C405.189 197.41 405.838 197.499 405.848 197.492C406.052 197.553 406.251 197.628 406.445 197.716C406.445 197.716 419.196 215.496 419.335 225.056C419.413 229.613 409.451 232.879 397.476 235.227Z" fill="#DF5151"/>
<path d="M310.247 278.306H321.286C321.535 276.754 321.811 275.162 322.098 273.535C323.969 263.011 326.429 251.122 327.743 239.449C330.169 217.821 333.51 196.628 335.311 184.036C340.004 151.251 346.258 136.597 346.258 136.597C343.273 137.489 310.285 153.052 310.285 153.052C310.578 162.112 311.031 171.833 311.792 182.235C311.792 182.235 312.519 207.65 313.984 231.754C314.531 235.257 314.69 238.81 314.457 242.347C314.089 247.066 313.576 252.207 312.964 257.575C312.964 257.649 312.964 257.719 312.942 257.778C312.795 259.055 312.638 260.334 312.489 261.631C312.489 261.653 312.489 261.665 312.489 261.688C312.016 265.585 311.494 269.563 310.939 273.547C310.712 275.13 310.481 276.716 310.247 278.306Z" fill="#FC5A5A"/>
<path d="M341.82 242.044C344.328 247.953 352.971 262.54 352.971 262.54C352.971 262.54 359.228 261.01 368.431 258.63C369.036 263.846 369.648 268.746 370.233 273.532C370.427 275.132 370.623 276.719 370.81 278.303H403.636C403.245 276.699 402.874 275.109 402.524 273.532C400.516 264.658 399.108 256.395 398.907 250.377C420.92 244.101 442.496 237.067 442.163 233.702C441.665 228.734 425.13 151.74 420.938 148.76C418.519 147.021 400.574 140.678 391.771 137.213C390.161 136.577 384.668 134.518 383.225 133.97C381.359 136.046 368.486 150.228 363.938 203.806C363.373 210.472 364.545 222.634 365.844 234.822C352.516 238.368 341.384 241.036 341.82 242.044ZM401.847 222.92C403.174 212.24 404.676 201.506 405.764 197.748C405.764 197.748 409.478 205.226 409.187 216.194C409.13 218.412 406.306 220.682 401.842 222.922L401.847 222.92Z" fill="#FC5A5A"/>
<path d="M380.277 133.445C380.277 133.445 376.935 127.144 377.858 109.252C378.107 104.285 351.777 121.007 351.777 121.007C351.777 121.007 351.866 122.716 351.924 125.021C351.953 125.98 351.971 127.03 351.971 128.113C351.971 128.411 351.971 128.709 351.971 129.007C351.971 129.504 351.971 129.981 351.953 130.465C351.953 131.066 351.919 131.655 351.889 132.221C351.859 132.867 351.817 133.463 351.754 134.034C351.647 135.115 351.008 137.015 350.779 137.546C349.565 140.328 370.414 140.487 380.277 133.445Z" fill="#EEA987"/>
<path d="M254.703 251.082C254.703 251.082 270.713 235.584 281.213 233.006C286.067 231.814 292.458 225.125 298.534 217.262C300.524 214.672 302.5 211.954 304.368 209.265C311.832 198.523 317.662 188.225 317.662 188.225C317.662 188.225 339.693 162.452 322.013 150.97C322.013 150.97 314.435 150.806 310.28 153.059C306.008 155.376 296.892 174.367 295.352 177.729C293.812 181.092 277.065 212.325 275.945 213.025C274.826 213.725 272.96 216.296 266.257 219.897C258.047 224.303 245.172 237.206 245.172 237.206L254.703 251.082Z" fill="#FC5A5A"/>
<path d="M331.547 269.019C331.547 269.019 333.786 268.93 334.742 268.413C334.742 268.413 336.416 267.343 337.65 266.653C337.966 266.47 338.292 266.304 338.625 266.156C339.62 265.766 341.897 265.202 344.004 263.598C346.112 261.993 352.961 255.588 352.961 255.588L348.537 248.775L346.487 242.034C346.487 242.034 330.49 243.624 328.355 244.891C328.151 245.01 327.954 245.141 327.765 245.283C326.063 246.525 325.322 248.171 324.501 248.929C324.202 249.207 321.416 252.185 321.573 253.4C321.787 255.076 322.615 256.152 323.658 256.661C323.658 256.661 324.222 259.927 325.912 261.38C325.912 261.38 326.337 264.407 328.957 265.627C328.957 265.634 329.731 268.657 331.547 269.019Z" fill="#EFAA88"/>
<path d="M357.024 63.0879C357.024 63.0879 328.104 56.1336 334.197 92.6809C340.29 129.228 347.224 132.199 364.841 124.909C382.459 117.62 381.234 94.2431 382.282 82.8058C383.329 71.3685 366.264 63.6219 357.024 63.0879Z" fill="#EEA886"/>
<path d="M380.595 101.493C380.595 101.493 380.015 89.9985 375.818 89.5713C371.621 89.1441 370.907 93.7663 370.907 93.7663L366.65 94.5114C366.65 94.5114 368.143 84.4649 363.97 82.6443C359.798 80.8238 336.7 87.788 333.368 84.7828C330.037 81.7775 331.93 61.3816 338.06 58.6769C344.191 55.9721 361.109 49.9567 373.313 58.4658C373.313 58.4658 382.939 57.512 384.26 65.2735C385.581 73.035 383.292 95.7805 380.595 101.493Z" fill="#3A3F47"/>
<path d="M341.031 242.044L352.973 262.54C352.973 262.54 384.608 254.403 391.988 252.324L375.117 232.278C375.117 232.278 350.237 237.951 341.031 242.044Z" fill="#FC5A5A"/>
<path d="M351.884 132.221C367.394 130.644 373.407 118.722 373.407 118.722C363.652 128.376 351.966 128.093 351.966 128.093C351.966 128.394 351.966 128.709 351.966 129.007C351.966 129.504 351.966 129.981 351.948 130.465C351.936 131.066 351.914 131.655 351.884 132.221Z" fill="#A77860"/>
<path d="M373.153 90.3413C373.153 90.3413 365.386 91.7247 362.174 91.9582C358.962 92.1916 350.819 93.3664 347.686 93.9923C344.554 94.6182 335.722 94.7374 333.873 95.8103L334.841 100.609C334.841 100.609 337.578 106.463 343.847 103.803C350.117 101.143 352.725 104.352 358.833 101.928C364.941 99.5036 374.915 93.0137 374.915 93.0137L373.153 90.3413Z" fill="#16202E"/>
<path d="M372.218 88.4015C372.648 85.1901 379.033 84.1048 379.475 88.9355C379.918 93.7663 376.385 102.176 373.982 101.309C371.579 100.442 371.626 92.8274 372.218 88.4015Z" fill="#EEA886"/>
<path d="M346.537 268.428H327.992V275.472H346.537V268.428Z" fill="#E6DFDD"/>
<path d="M409.097 275.311H196.133V280.082H409.097V275.311Z" fill="#31535F"/>
<path d="M284.131 235.068C285.024 239.426 282.986 243.512 279.58 244.217C276.174 244.923 272.691 241.942 271.801 237.581C270.91 233.22 272.945 229.137 276.351 228.431C279.757 227.726 283.238 230.706 284.131 235.068Z" fill="#CFA345"/>
<path d="M187.729 3.51689C187.729 3.51689 312.481 204.759 332.45 269.655L335.993 266.829C335.993 266.829 310.068 191.946 187.729 3.51689Z" fill="#31535F"/>
<path d="M311.25 235.241C309.673 236.497 307.759 237.258 305.749 237.428C303.739 237.598 301.724 237.169 299.959 236.196C298.193 235.223 296.756 233.749 295.829 231.961C294.902 230.172 294.527 228.15 294.751 226.149C294.975 224.148 295.789 222.258 297.089 220.719C298.388 219.179 300.116 218.059 302.054 217.499C303.991 216.94 306.051 216.966 307.974 217.575C309.896 218.184 311.595 219.348 312.855 220.921C313.692 221.966 314.315 223.165 314.687 224.451C315.06 225.737 315.175 227.083 315.026 228.413C314.877 229.743 314.467 231.031 313.819 232.202C313.171 233.374 312.298 234.407 311.25 235.241Z" fill="#5E8FDF"/>
<path d="M305.384 228.096L303.164 227.347L295.982 248.553L298.202 249.302L305.384 228.096Z" fill="#486EAB"/>
<path d="M299.405 251.8C298.831 252.258 298.134 252.535 297.402 252.597C296.67 252.659 295.936 252.503 295.293 252.149C294.65 251.795 294.127 251.259 293.789 250.608C293.451 249.956 293.314 249.22 293.396 248.491C293.477 247.763 293.773 247.075 294.246 246.514C294.719 245.953 295.348 245.545 296.053 245.341C296.759 245.136 297.509 245.146 298.209 245.367C298.909 245.588 299.528 246.012 299.987 246.584C300.292 246.965 300.52 247.402 300.656 247.87C300.792 248.338 300.834 248.828 300.78 249.313C300.726 249.797 300.577 250.266 300.341 250.693C300.105 251.12 299.786 251.496 299.405 251.8Z" fill="#5E8FDF"/>
<path d="M306.436 229.223C306.051 229.53 305.584 229.715 305.094 229.756C304.604 229.798 304.113 229.693 303.682 229.456C303.252 229.219 302.901 228.859 302.675 228.423C302.449 227.987 302.357 227.494 302.412 227.006C302.466 226.518 302.665 226.057 302.981 225.682C303.298 225.306 303.719 225.033 304.192 224.896C304.664 224.759 305.167 224.766 305.636 224.914C306.104 225.062 306.519 225.346 306.826 225.729C307.031 225.984 307.183 226.277 307.274 226.59C307.365 226.904 307.393 227.233 307.357 227.557C307.321 227.882 307.221 228.196 307.063 228.482C306.905 228.768 306.692 229.02 306.436 229.223Z" fill="#689FF7"/>
<path d="M329.265 197.177L337.702 275.472H226.666L218.229 197.177H329.265Z" fill="#E6DFDD"/>
<path d="M103.648 143.107L101.015 127.803L106.656 126.826L109.285 142.131L103.648 143.107ZM105.352 153.027L104.357 147.188L109.994 146.222L110.99 152.063L105.352 153.027Z" fill="#27434C"/>
<path d="M87.6101 144.729L79.6212 131.409L84.5275 128.473L92.5189 141.796L87.6101 144.729ZM92.79 153.367L89.7423 148.283L94.6511 145.347L97.6889 150.421L92.79 153.367Z" fill="#27434C"/>
<path d="M183.567 203.686L182.82 203.478C192.431 169.203 183.069 150.036 172.229 127.845C164.369 111.753 155.462 93.5154 152.061 66.4359C149.076 42.6696 152.643 25.105 162.66 14.2265C173.286 2.68485 187.577 3.50695 187.727 3.51688C187.587 3.51688 173.597 3.47715 163.217 14.7555C153.367 25.4627 149.872 42.8211 152.825 66.3415C156.211 93.2943 165.088 111.47 172.921 127.507C183.833 149.84 193.255 169.128 183.567 203.686Z" fill="#31535F"/>
<path opacity="0.72" d="M190.904 201.449H166.265C163.116 201.449 160.563 203.997 160.563 207.141V231.737C160.563 234.881 163.116 237.43 166.265 237.43H190.904C194.053 237.43 196.606 234.881 196.606 231.737V207.141C196.606 203.997 194.053 201.449 190.904 201.449Z" fill="#E0E0E0"/>
<path d="M173.46 249.391C172.216 248.574 170.527 248.77 169.348 249.063L169.778 245.976H153.328L155.962 264.852H167.158L167.407 263.091L167.644 261.397C169.287 261.385 170.867 260.765 172.08 259.658C173.859 258.032 174.876 255.411 174.876 252.471C174.861 250.692 174.1 249.816 173.46 249.391ZM170.853 258.317C170.039 259.07 168.988 259.517 167.88 259.581L169.074 251.01C169.952 250.712 171.619 250.322 172.465 250.884C172.615 250.983 173.067 251.284 173.067 252.451C173.067 254.89 172.261 257.028 170.853 258.317Z" fill="url(#paint0_linear_8_6)"/>
<path d="M167.146 264.839H155.95L153.315 245.964H159.371C159.371 245.964 157.196 262.989 167.134 264.839H167.146Z" fill="url(#paint1_linear_8_6)"/>
<path d="M320.62 360.632C317.102 344.583 324.705 340.577 332.064 336.705C338.07 333.538 343.758 330.548 343.444 321.09C343.044 308.55 351.6 303.987 359.151 299.961C364.766 296.981 370.073 294.139 370.864 288.432C372.768 274.702 385.454 257.634 385.581 257.468L386.37 258.057C386.243 258.225 373.708 275.09 371.837 288.566C370.979 294.775 365.458 297.711 359.614 300.828C351.961 304.909 344.047 309.128 344.437 321.057C344.758 331.131 338.543 334.405 332.532 337.571C325.183 341.443 318.241 345.102 321.597 360.421L320.62 360.632Z" fill="url(#paint2_linear_8_6)"/>
<path d="M324.481 356.542C324.312 356.542 324.145 356.542 323.983 356.524C320.804 356.288 317.686 353.877 314.176 348.934L313.954 348.626L314.203 348.333C314.26 348.266 319.891 341.416 317.823 328.558C317.421 326.147 316.872 323.762 316.179 321.418C315.432 318.725 314.922 316.947 315.761 315.529C316.821 313.728 319.689 312.797 327.773 310.864C336.381 308.818 339.26 299.137 341.8 290.593C344.191 282.548 346.455 274.96 353.153 275.194C359.308 275.427 368.655 265.801 376.903 257.311C384.553 249.436 391.776 242.017 396.394 242.161C396.93 242.175 397.457 242.305 397.937 242.543C398.417 242.781 398.84 243.121 399.175 243.539C403.293 248.435 399.451 255.858 395.737 263.039C392.57 269.164 389.577 274.96 391.507 278.765C393.928 283.561 394.266 287.9 392.488 291.313C390.38 295.351 385.471 297.954 377.896 299.05C370.966 300.043 370.218 307.596 369.436 315.581C368.511 324.9 367.463 335.45 355.837 336.466C347.204 337.211 341.384 343.264 336.252 348.601C332.139 352.854 328.589 356.542 324.481 356.542ZM315.181 348.664C318.38 353.087 321.281 355.34 324.046 355.543C327.909 355.831 331.432 352.168 335.51 347.928C340.765 342.464 346.721 336.272 355.723 335.495C366.535 334.561 367.498 324.867 368.429 315.492C369.26 307.112 370.046 299.199 377.736 298.086C384.981 297.038 389.646 294.609 391.597 290.866C393.224 287.746 392.883 283.718 390.602 279.215C388.45 274.953 391.555 268.95 394.831 262.597C398.396 255.702 402.084 248.571 398.389 244.178C398.142 243.865 397.83 243.611 397.473 243.433C397.116 243.255 396.725 243.159 396.326 243.149C392.152 243.01 385.071 250.285 377.575 257.999C368.889 266.941 359.91 276.18 353.337 276.182H353.088C347.149 275.961 345.091 282.888 342.713 290.878C340.098 299.676 337.132 309.645 327.972 311.823C320.662 313.562 317.462 314.53 316.577 316.045C315.952 317.103 316.383 318.633 317.094 321.169C317.799 323.549 318.356 325.971 318.764 328.419C320.704 340.353 316.293 347.171 315.181 348.664Z" fill="url(#paint3_linear_8_6)"/>
<path d="M324.839 353.179C324.725 353.179 324.61 353.174 324.496 353.164C319.271 352.69 315.271 341.285 311.392 330.257C309.553 325.026 307.817 320.074 306.125 316.912C304.811 314.453 303.139 311.888 301.529 309.407C297.235 302.797 292.792 295.965 294.237 289.969C294.998 286.815 297.265 284.192 301.171 281.945C309.715 277.029 308.401 274.245 305.52 268.168C303.408 263.697 300.512 257.59 300.4 247.968C300.353 243.833 300.256 240.268 300.171 237.102C299.9 226.961 299.763 221.872 301.93 220.031C302.828 219.269 304.087 219.073 305.886 219.413C308.961 219.997 310.292 222.478 311.7 225.103C313.497 228.451 315.532 232.246 321.68 233.53C327.447 234.735 332.995 236.379 334.525 240.204C335.602 242.894 334.582 246.433 331.41 251.02C330.639 252.133 330.375 253.079 330.601 253.911C331.099 255.759 333.978 257.098 337.307 258.648C342.034 260.853 347.935 263.6 349.605 269.283C350.951 273.865 349.393 279.58 344.848 286.753C334.09 303.726 334.523 315.236 334.896 325.389C335.179 332.915 335.446 340.023 330.9 347.963C328.902 351.468 326.914 353.179 324.839 353.179ZM304.343 220.233C303.577 220.233 302.997 220.414 302.569 220.779C300.758 222.316 300.9 227.559 301.154 237.077C301.241 240.234 301.335 243.813 301.385 247.955C301.492 257.364 304.336 263.354 306.411 267.748C309.267 273.786 310.994 277.434 301.661 282.796C298.004 284.9 295.887 287.322 295.192 290.2C293.844 295.786 298.178 302.437 302.353 308.87C303.978 311.369 305.657 313.954 306.988 316.45C308.73 319.679 310.471 324.664 312.317 329.932C315.917 340.167 319.998 351.768 324.583 352.185C326.325 352.342 328.171 350.76 330.057 347.466C334.463 339.767 334.214 333.118 333.923 325.416C333.537 315.119 333.099 303.448 344.017 286.219C348.405 279.297 349.923 273.845 348.664 269.551C347.119 264.293 341.698 261.762 336.894 259.529C333.343 257.875 330.278 256.447 329.656 254.16C329.35 253.03 329.656 251.818 330.601 250.452C333.575 246.157 334.56 242.919 333.614 240.559C332.251 237.154 326.715 235.577 321.481 234.481C314.885 233.105 312.638 228.918 310.834 225.555C309.483 223.039 308.317 220.866 305.704 220.369C305.256 220.281 304.8 220.236 304.343 220.233Z" fill="url(#paint4_linear_8_6)"/>
<path d="M324.944 359.266L324.006 358.968C329.263 342.382 319.754 305.167 316.92 296.109C315.524 291.656 316.813 284.95 318.06 278.475C319.667 270.1 321.331 261.442 317.089 258.196C309.128 252.101 309.543 237.996 309.566 237.4L310.561 237.435C310.561 237.576 310.14 251.631 317.701 257.416C322.428 261.032 320.702 269.993 319.037 278.659C317.816 285.024 316.549 291.606 317.87 295.823C321.364 307.017 330.188 342.718 324.944 359.266Z" fill="#3254FE"/>
<path d="M285.181 251.524C282.991 245.978 274.445 246.82 275.229 254.661C276.013 262.502 281.514 270.87 273.134 284.2C264.754 297.53 283.87 300.145 290.677 308.51C297.484 316.875 299.842 328.379 305.605 335.694C311.367 343.008 315.293 360.531 320.008 353.994C324.722 347.456 320.284 338.96 320.809 327.197C321.334 315.434 331.821 307.986 321.331 300.406C310.842 292.826 300.295 290.501 303.759 273.406C305.286 265.863 291.988 268.779 285.181 251.524Z" fill="url(#paint5_linear_8_6)"/>
<path d="M327.638 355.506C327.581 355.158 321.759 320.702 308.73 311.259C295.434 301.63 293.02 292.734 288.378 271.769L289.338 271.558C293.924 292.274 296.305 301.056 309.309 310.475C322.672 320.161 328.385 353.924 328.621 355.357L327.638 355.506Z" fill="white"/>
<path d="M315.875 354.272C315.875 354.272 319.749 344.707 312.7 331.114C305.652 317.521 299.942 319.609 316.93 309.153C333.918 298.697 317.037 265.753 331.505 261.571C345.972 257.388 358.551 204.069 369.551 210.862C380.55 217.655 365.884 243.793 373.741 251.636C381.598 259.48 382.645 269.462 366.409 277.543C350.172 285.625 377.93 316.473 355.932 325.886C333.933 335.299 340.245 372.214 315.875 354.272Z" fill="url(#paint6_linear_8_6)"/>
<path d="M322.595 364.415C322.57 364.293 320.207 352.046 327.681 336.225C335.294 320.106 338.939 302.485 337.428 289.085C336.61 281.83 341.267 278.994 345.768 276.249C350.202 273.547 354.787 270.753 354.533 263.605C354.304 257.147 357.044 241.997 357.161 241.366L358.128 241.543C358.099 241.699 355.292 257.217 355.516 263.57C355.79 271.292 350.956 274.25 346.281 277.086C341.847 279.791 337.657 282.344 338.406 288.976C339.934 302.547 336.257 320.367 328.569 336.643C321.244 352.153 323.536 364.102 323.56 364.211L322.595 364.415Z" fill="white"/>
<path d="M340.372 296.844C345.313 292.264 351.846 291.604 350.485 298.396C349.124 305.189 344.457 307.134 346.788 311.406C349.119 315.678 353.008 319.947 346.4 325.19C339.792 330.433 336.092 331.014 334.149 340.914C332.206 350.814 332.592 357.577 324.036 358C315.479 358.422 318.786 345.961 321.508 340.331C321.508 340.331 325.591 333.908 322.869 325.471C320.147 317.034 314.907 312.479 325.981 309.613C337.055 306.746 337.04 299.939 340.372 296.844Z" fill="#2A46D3"/>
<path d="M324.655 364.328C324.628 363.116 324.038 334.596 329.382 329.805C334.841 324.9 335.888 316.237 336.028 311.508C336.209 305.346 344.183 301.69 344.524 301.538L344.927 302.432C344.85 302.467 337.175 305.991 337.01 311.537C336.836 317.498 335.483 325.645 330.044 330.535C325.031 335.038 325.633 364.025 325.64 364.313L324.655 364.328Z" fill="white"/>
<path d="M344.726 352.687L335.861 386.259H316.052L307.187 352.687H344.726Z" fill="#31535F"/>
<path d="M344.726 352.687C344.726 352.687 325.213 356.346 325.213 386.259H316.054L307.19 352.687H344.726Z" fill="url(#paint7_linear_8_6)"/>
<path d="M191.366 210.708L191.361 228.178L165.802 228.173L165.807 210.703L184.417 210.708H191.366Z" fill="#FC5A5A"/>
<path d="M191.361 228.178L178.583 218.41L165.802 228.173L191.361 228.178Z" fill="#FC5A5A"/>
<path d="M191.366 210.708L180.554 219.917L178.583 221.589L176.615 219.912L165.807 210.703L184.418 210.708H191.366Z" fill="#DF5151"/>
<path d="M180.875 216.736C180.536 217.575 180.073 218.169 179.449 218.323C176.62 219.023 176.048 216.06 176.381 214.659C176.381 214.659 176.63 217.888 178.77 217.799C179.479 217.759 180.014 217.359 180.389 216.629C180.547 216.681 180.71 216.717 180.875 216.736Z" fill="#878787"/>
<path d="M139.858 290.121C140.072 289.241 139.96 287.885 137.201 286.341C134.441 284.796 128.289 280.357 126.174 280.238C124.059 280.119 120.845 280.906 119.989 280.886C119.133 280.867 117.483 286.549 117.483 286.549L139.858 290.121Z" fill="#EEA886"/>
<path d="M66.196 234.106L84.6369 270.264L122.472 279.967L118.807 289.525L78.1458 286.646L58.1921 253.484L66.196 234.106Z" fill="#2A46D3"/>
<path d="M178.272 380.859C178.272 380.859 186.731 384.413 190.513 385.645C194.295 386.877 208.133 385.494 209.67 386.599C211.208 387.704 211.273 391.882 209.048 392.612C206.824 393.342 190.289 397.14 184.524 396.586C178.76 396.032 168.601 399.663 166.193 399.194C163.785 398.724 163.561 386.073 164.071 383.154C164.581 380.236 178.272 380.859 178.272 380.859Z" fill="#202338"/>
<path d="M176.324 375.79L178.272 380.859C178.272 380.859 168.071 384.242 164.071 383.167L162.735 377.998L176.324 375.79Z" fill="#292C47"/>
<path d="M155.462 385.377C155.462 385.377 163.441 389.905 167.049 391.586C170.656 393.268 184.564 393.516 185.958 394.795C187.351 396.074 186.92 400.232 184.624 400.694C182.328 401.156 165.466 402.972 159.801 401.752C154.136 400.533 143.629 402.927 141.291 402.174C138.952 401.422 140.231 388.834 141.087 385.998C141.943 383.162 155.462 385.377 155.462 385.377Z" fill="#292C47"/>
<path d="M154.268 380.102L155.462 385.372C155.462 385.372 144.933 387.523 141.089 385.983L140.375 380.693L154.268 380.102Z" fill="#3D416B"/>
<path d="M74.2794 285.223C74.2794 285.223 110.669 285.521 115.13 286.11C119.966 286.745 138.255 286.937 140.539 290.163C163.615 322.751 179.322 376.488 179.322 376.488L161.085 379.829C161.085 379.829 143.448 348.025 136.061 331.501C129.428 316.669 123.753 312.854 109.823 313.182C95.8925 313.509 51.3551 310.653 25.6617 307.69L74.2794 285.223Z" fill="#202338"/>
<path d="M82.1364 210.919C82.1364 210.919 85.7067 226.551 84.8334 235.167C83.9601 243.783 70.1842 265.388 69.5273 270.187C68.8705 274.985 72.6398 284.902 72.6398 284.902L24.9626 306.943C25.1323 296.866 25.8124 286.804 27.0002 276.796C28.9608 260.436 35.136 247.488 37.2955 238.247C44.6699 206.704 71.6521 202.315 71.6521 202.315L82.1364 210.919Z" fill="#CFBEB6"/>
<path d="M72.493 284.473C72.493 284.473 109.97 284.773 114.43 285.359C119.267 285.998 138.629 286.303 140.485 289.793C153.708 314.63 156.676 380.961 156.676 380.961L139.666 382.876C139.666 382.876 131.309 349.215 128.687 333.185C126.064 317.156 122.788 314.823 108.857 315.149C94.9272 315.474 40.3732 329.979 24.9626 306.953L72.493 284.473Z" fill="#292C47"/>
<path d="M118.212 185.794C118.212 185.794 117.767 195.378 115.15 195.344C112.99 195.311 112.194 204.503 111.95 205.936C111.706 207.37 107.842 206.202 106.678 206.52C105.514 206.838 97.8705 214.766 94.9397 213.385C92.0088 212.004 82.1539 200.222 80.8801 194.656C79.6062 189.09 86.391 171.533 92.6905 166.178C98.9901 160.823 118.916 169.007 118.212 185.794Z" fill="#EEA886"/>
<path d="M90.1353 205.733C90.1353 205.733 89.6875 206.503 89.0132 207.702C88.5156 208.587 87.8986 209.689 87.2468 210.931C85.4803 214.229 83.48 218.253 83.0296 220.307C82.1937 224.147 73.436 202.608 73.436 202.608C77.7961 194.791 81.5957 186.674 84.806 178.32C89.8492 165.03 90.1353 205.733 90.1353 205.733Z" fill="#EEA886"/>
<path d="M118.048 187.83C118.048 187.83 126.756 182.406 122.982 172.258C119.207 162.11 99.7191 164.268 97.9775 163.751C96.2359 163.235 87.4583 158.729 82.6341 176.274C77.8099 193.819 79.3524 191.34 79.3524 191.34C79.3524 191.34 85.1992 185.233 88.2942 186.229C91.6555 187.311 96.9251 189.569 96.9251 189.569C96.9251 189.569 98.4477 181.254 103.023 182.692C107.599 184.13 114.903 183.906 118.048 187.83Z" fill="#754836"/>
<path d="M94.9994 183.131C95.2059 181.989 96.4722 177.31 91.6232 177.595C86.7741 177.881 87.8165 188.772 88.3589 189.219C88.9013 189.666 93.2578 192.738 94.9994 183.131Z" fill="#EEA886"/>
<path d="M89.0133 207.702C88.5157 208.587 87.8986 209.689 87.2468 210.931C83.8781 204.898 81.9374 198.403 81.3901 196.387C82.5843 199.847 89.0133 207.702 89.0133 207.702Z" fill="#A77860"/>
<path d="M92.2601 209.036C92.2601 209.036 92.1979 205.842 92.0635 204.864C91.9292 203.885 94.0067 204.548 94.3898 205.686C94.773 206.823 92.2601 209.036 92.2601 209.036Z" fill="#C98462"/>
<path d="M107.549 207.298C107.549 207.298 107.877 208.693 107.723 209.374C107.723 209.374 107.345 210.591 107.128 211.47C107.07 211.697 107.024 211.926 106.991 212.158C106.919 212.834 106.962 214.341 106.33 215.918C105.698 217.496 102.493 224.341 102.493 224.341L97.9799 223.009L94.4296 221.81C94.4296 221.81 91.638 210.998 92.056 209.463C92.0951 209.317 92.1424 209.172 92.1978 209.031C92.678 207.767 93.5687 207.027 93.8971 206.391C94.019 206.158 95.3899 203.927 96.1612 203.815C97.236 203.659 98.0446 203.987 98.5397 204.543C98.5397 204.543 100.659 204.332 101.854 205.127C101.854 205.127 103.802 204.878 105.006 206.277C105.006 206.272 107.016 206.232 107.549 207.298Z" fill="#DE9D7D"/>
<path d="M74.4237 200.84C74.4237 200.84 79.9371 213.676 84.6493 218.027L82.4151 225.677L71.6521 202.33L74.4237 200.84Z" fill="#EDDAD3"/>
<path d="M72.493 284.473C72.493 284.473 71.8063 282.637 71.2839 280.837C70.7614 279.036 56.6197 286.467 56.6197 286.467L60.0232 290.396L72.493 284.473Z" fill="#323657"/>
<path d="M80.7233 241.028C79.3748 243.783 78.0935 246.579 76.8719 249.396C74.1874 255.59 71.8014 261.886 69.6941 268.051C68.941 270.246 68.2245 272.423 67.5445 274.58C59.4212 300.242 56.1943 322.001 56.1943 322.001C56.1943 322.001 25.8409 313.934 21.2928 309.938C21.2928 309.938 28.6946 202.579 71.6546 202.313C71.9208 202.718 87.8016 226.566 80.7233 241.028Z" fill="#3254FE"/>
<path d="M69.6966 268.053C68.9436 270.249 68.227 272.425 67.547 274.583C60.8617 264.025 49.0712 238.642 48.8871 238.247L69.6966 268.053Z" fill="#292C47"/>
<path d="M92.8647 219.984L104.384 223.804L93.7554 279.687C92.5711 284.984 85.8784 286.723 82.2584 282.667C72.3363 271.56 56.6098 253.037 49.7305 239.948C39.281 220.106 56.6969 213.201 60.8891 218.198C65.0814 223.196 83.5298 256.906 83.5298 256.906L92.8647 219.984Z" fill="#3254FE"/>
<path d="M5.53894 192.992L23.3803 245.228C23.52 245.629 23.6037 246.047 23.6291 246.47L27.8984 315.141L102.498 316.8L124.236 395.781C124.566 396.963 124.629 398.203 124.421 399.412C124.213 400.621 123.74 401.769 123.034 402.773C122.089 404.112 120.735 405.294 118.847 405.525C114.12 406.103 18.3321 405.525 18.3321 405.525V401.576C18.337 401.103 18.4353 400.635 18.6212 400.2C18.8072 399.765 19.0773 399.37 19.416 399.039C19.7547 398.708 20.1555 398.447 20.5953 398.271C21.0352 398.094 21.5056 398.006 21.9795 398.012H111.527C112.254 398.019 112.974 397.862 113.632 397.553C114.29 397.245 114.87 396.792 115.329 396.228C115.861 395.558 116.239 394.738 116.092 393.784C115.697 391.266 96.5817 326.906 96.5817 326.906L24.4476 325.63C22.8814 325.617 21.379 325.008 20.2475 323.927C19.116 322.846 18.4406 321.375 18.3595 319.813L15.2247 245.911C15.2045 245.441 15.1277 244.975 14.9958 244.523L0.413692 194.594C0.413692 194.594 -1.11144 191.116 1.695 190.776C4.50145 190.436 5.22794 192.083 5.53894 192.992Z" fill="#5E5E5B"/>
<path d="M102.904 318.251C102.904 318.251 102.958 312.538 95.1288 312.151C86.1397 311.694 27.6621 311.289 27.6621 311.289L28.0527 317.357L102.904 318.251Z" fill="#D6985E"/>
<path d="M141.579 269.29V272H271.002V269.29C271.002 266.764 269.3 264.718 267.203 264.718H145.381C143.281 264.718 141.579 266.764 141.579 269.29Z" fill="#31535F"/>
<path d="M263.667 404.164H224.559V401.752C224.559 401.248 224.658 400.75 224.851 400.285C225.044 399.819 225.327 399.397 225.684 399.04C226.04 398.684 226.464 398.402 226.93 398.209C227.396 398.016 227.896 397.917 228.4 397.917H263.667V404.161V404.164Z" fill="#27434C"/>
<path d="M256.017 404.164H261.184V272.002H256.017V404.164Z" fill="#27434C"/>
<path d="M245.629 404.164H250.799L250.799 272.002H245.629L245.629 404.164Z" fill="#27434C"/>
<path d="M211.994 164.447H207.857V256.01H211.994V164.447Z" fill="#27434C"/>
<path d="M216.41 264.718H239.171V263.339H216.41C215.226 263.339 214.37 263.059 213.873 262.502C213.51 262.059 213.332 261.493 213.375 260.923V260.88V231.481H211.997V260.808C211.923 261.748 212.223 262.68 212.83 263.401C213.597 264.273 214.803 264.718 216.41 264.718Z" fill="#31535F"/>
<path d="M209.419 264.715H183.793V264.517C183.793 264.226 183.85 263.938 183.962 263.67C184.073 263.401 184.236 263.157 184.442 262.952C184.648 262.746 184.892 262.583 185.161 262.472C185.43 262.361 185.719 262.304 186.01 262.304H209.412V264.715H209.419Z" fill="#27434C"/>
<path d="M196.494 272H271.002V269.29C271.002 266.764 269.26 264.718 267.091 264.718H208.16L196.494 272Z" fill="#27434C"/>
<path d="M263.466 238.373C263.466 238.373 256.32 239.441 245.895 244.97C235.471 250.499 254.056 246.634 263.466 238.373Z" fill="#2F4FEE"/>
<path d="M244.485 245.775C244.485 245.775 249.672 235.907 257.731 231.402C257.731 231.402 255.392 238.249 246.891 245.601C238.389 252.953 244.485 245.775 244.485 245.775Z" fill="#2C4AE0"/>
<path d="M240.342 239.024C240.342 239.024 234.991 232.492 232.849 229.524C230.706 226.556 237.342 243.413 237.892 245.196C238.442 246.979 240.701 248.527 240.342 239.024Z" fill="#2D4CE5"/>
<path d="M245.46 249.118C247.839 245.556 249.503 229.524 249.503 229.524C245.341 232.966 241.415 248.455 241.415 248.455C241.415 248.455 243.079 252.682 245.46 249.118Z" fill="#5E8FDF"/>
<path d="M244.92 247.503C245.634 245.988 244.672 226.335 244.114 228.116C243.557 229.897 240.303 237.261 240.303 237.261C239.82 241.724 244.206 249.023 244.92 247.503Z" fill="#2D4BE4"/>
<path d="M239.439 243.147C238.178 240.857 225.711 228.573 225.711 228.573C225.83 232.373 233.563 241.398 233.563 241.398C233.563 241.398 240.701 245.437 239.439 243.147Z" fill="#5E8FDF"/>
<path d="M245.46 248.859C231.065 243.564 217.503 246.316 217.503 246.316C219.493 249.048 238.322 248.859 238.322 248.859H245.46Z" fill="#2E4DE9"/>
<path d="M242.437 249.324C235.123 241.376 217.878 237.541 217.878 237.541C222.971 242.735 230.288 247.29 230.288 247.29C230.288 247.29 249.754 257.277 242.437 249.324Z" fill="#2A46D3"/>
<path d="M243.913 248.455C239.631 240.547 223.325 232.73 223.325 232.73C223.325 235.214 236.536 246.825 236.536 246.825C236.536 246.825 248.194 256.363 243.913 248.455Z" fill="#2C4AE0"/>
<path d="M243.793 249.237C247 248.651 258.903 237.005 258.903 237.005C255.81 237.598 243.793 245.201 243.793 245.201C243.793 245.201 240.586 249.823 243.793 249.237Z" fill="#2D4AE1"/>
<path d="M249.503 249.289C253.549 249.458 266.516 241.398 266.516 241.398C262.637 241.398 253.73 243.746 249.376 244.963C247.734 245.42 246.342 246.51 245.505 247.993C243.179 252.096 245.98 249.14 249.503 249.289Z" fill="#2E4DE8"/>
<path d="M264.506 245.795C263.297 245.7 255.514 246.043 252.17 246.202C250.847 246.257 249.58 246.754 248.573 247.613C247.132 248.854 247.553 249.788 249.516 250.186C252.123 250.71 266.041 245.911 264.506 245.795Z" fill="#2E4DE9"/>
<path d="M243.457 247.893C243.741 246.672 243.798 245.409 243.627 244.168C243.059 239.945 241.089 226.839 238.203 224.852C238.203 224.852 236.899 241.823 239.631 247.533C241.678 251.82 242.905 250.235 243.457 247.893Z" fill="#2E4DE9"/>
<path d="M243.435 250.22C245.075 248.668 251.737 233.562 251.737 233.562C245.498 237.206 242.721 244.595 242.721 244.595C242.721 244.595 241.798 251.775 243.435 250.22Z" fill="#2E4DE9"/>
<path d="M228.074 251.368L230.132 264.718H254.404L256.465 251.368H228.074Z" fill="#31535F"/>
<path d="M256.465 251.368H228.074L230.132 264.718H235.237C235.237 264.718 239.603 256.169 255.87 255.228L256.465 251.368Z" fill="#27434C"/>
<path d="M257.592 248.494H226.947V252.952H257.592V248.494Z" fill="#31535F"/>
<defs>
<linearGradient id="paint0_linear_8_6" x1="153.328" y1="255.409" x2="174.861" y2="255.409" gradientUnits="userSpaceOnUse">
<stop stop-color="#2A46D3"/>
<stop offset="1" stop-color="#3254FE"/>
</linearGradient>
<linearGradient id="paint1_linear_8_6" x1="153.985" y1="266.839" x2="161.965" y2="252.198" gradientUnits="userSpaceOnUse">
<stop stop-color="#2A46D3"/>
<stop offset="1" stop-color="#3254FE"/>
</linearGradient>
<linearGradient id="paint2_linear_8_6" x1="319.734" y1="309.051" x2="386.362" y2="309.051" gradientUnits="userSpaceOnUse">
<stop stop-color="#3076A1"/>
<stop offset="0.0001" stop-color="#2A46D3"/>
</linearGradient>
<linearGradient id="paint3_linear_8_6" x1="313.944" y1="299.355" x2="400.939" y2="299.355" gradientUnits="userSpaceOnUse">
<stop stop-color="#3254FE"/>
<stop offset="1" stop-color="#2A46D3"/>
</linearGradient>
<linearGradient id="paint4_linear_8_6" x1="293.958" y1="286.216" x2="350.072" y2="286.216" gradientUnits="userSpaceOnUse">
<stop stop-color="#2E4CE7"/>
<stop offset="1" stop-color="#2D4AE1"/>
</linearGradient>
<linearGradient id="paint5_linear_8_6" x1="271.049" y1="301.695" x2="325.974" y2="301.695" gradientUnits="userSpaceOnUse">
<stop stop-color="#2A46D3"/>
<stop offset="1" stop-color="#3254FE"/>
</linearGradient>
<linearGradient id="paint6_linear_8_6" x1="307.826" y1="425.923" x2="353.886" y2="246.489" gradientUnits="userSpaceOnUse">
<stop stop-color="#3254FE"/>
<stop offset="1" stop-color="#2A46D3"/>
</linearGradient>
<linearGradient id="paint7_linear_8_6" x1="307.187" y1="369.474" x2="344.726" y2="369.474" gradientUnits="userSpaceOnUse">
<stop stop-color="#27434C"/>
<stop offset="1" stop-color="#31535F"/>
</linearGradient>
</defs>
</svg>
